:version 1.10
:name ASF
:units
  mass 1
  length 1
  angle deg
:documentation
  ASF file generated by Kaydara
:root
  axis xyz
  order  tx ty tz rx ry rz
  position 0 0 0
  orientation 0 0 0
:bonedata
  begin
    id 1
    name RightUpLegDummy
    direction -1 2.30186e-007 8.31532e-007
    length 4.46685
    axis 0 0 0 xyz
  end
  begin
    id 2
    name RightUpLeg
    direction -2.30187e-007 -1 1.24343e-010
    length 16.4045
    axis -3.49089 -0.000906625 0.000286804 xyz
    dof rx ry rz
  end
  begin
    id 3
    name RightLeg
    direction -2.30181e-007 -1 -4.17157e-009
    length 17.5097
    axis 3.68512 0.0193738 -0.131023 xyz
    dof rx ry rz
  end
  begin
    id 4
    name RightFoot
    direction 8.31421e-007 -4.51202e-011 1
    length 6.49508
    axis 4.81691e-005 -0.120479 -0.188788 xyz
    dof rx ry rz
  end
  begin
    id 5
    name RightToes
    direction 0.00124746 -0.014064 0.9999
    length 3.85082
    axis 0.000481921 0.542163 -0.142578 xyz
    dof rx ry rz
  end
  begin
    id 6
    name SpineDummy
    direction 0.0717043 0.9409 -0.331007
    length 10.0032
    axis 0 0 0 xyz
  end
  begin
    id 7
    name Spine
    direction 2.30186e-007 1 4.58806e-011
    length 9.84055
    axis -0.001389 0.000121418 2.40972e-006 xyz
    dof rx ry rz
  end
  begin
    id 8
    name Spine1
    direction 0 0 0
    length 0
    axis -0.001389 0.000121451 1.30017e-006 xyz
    dof rx ry rz
  end
  begin
    id 9
    name HEadDummy
    direction -0.00347485 0.950688 -0.310128
    length 8.00997
    axis -0.001389 0.000121451 1.30017e-006 xyz
  end
  begin
    id 10
    name HEad
    direction -0.0222688 0.980941 0.193023
    length 5.12695
    axis -0.001389 0.000121451 1.30017e-006 xyz
    dof rx ry rz
  end
  begin
    id 11
    name LeftShoulder1Dummy
    direction 0.988871 0.146793 -0.0242004
    length 3.5792
    axis -0.001389 0.000121451 1.30017e-006 xyz
  end
  begin
    id 12
    name LeftShoulder1
    direction 0.993832 0.108932 0.020779
    length 4.16823
    axis -0.001389 0.000121451 1.30017e-006 xyz
    dof rx ry rz
  end
  begin
    id 13
    name LeftArm
    direction 1 3.44807e-006 -8.31404e-007
    length 9.91437
    axis -23.1894 0.134784 0.967509 xyz
    dof rx ry rz
  end
  begin
    id 14
    name LeftForeArm
    direction 1 3.44842e-006 -8.31581e-007
    length 9.08575
    axis -9.91835 -0.06569 -0.177793 xyz
    dof rx ry rz
  end
  begin
    id 15
    name LeftHand
    direction 0.992938 -0.0411636 0.11126
    length 5.32135
    axis -0.00960232 -0.00340091 0.185173 xyz
    dof rx ry rz
  end
  begin
    id 16
    name RightShoulderDummy
    direction -0.988871 0.146793 -0.0241962
    length 3.5792
    axis -0.001389 0.000121451 1.30017e-006 xyz
  end
  begin
    id 17
    name RightShoulder
    direction -0.993832 0.108933 0.0207785
    length 4.16823
    axis 0.215806 0.000203643 -0.0068026 xyz
    dof rx ry rz
  end
  begin
    id 18
    name RightArm
    direction -1 3.90912e-006 8.31284e-007
    length 9.91437
    axis -23.2009 -0.134239 -0.964101 xyz
    dof rx ry rz
  end
  begin
    id 19
    name RightForeArm
    direction -1 3.90882e-006 8.31502e-007
    length 9.08575
    axis -9.92322 0.0658061 0.178867 xyz
    dof rx ry rz
  end
  begin
    id 20
    name RightHand
    direction -0.992843 -0.0414603 0.112003
    length 5.28593
    axis -0.00960638 0.00330671 -0.185228 xyz
    dof rx ry rz
  end
  begin
    id 21
    name LeftUpLegDummy
    direction 1 -2.30186e-007 -8.31532e-007
    length 4.46685
    axis 0 0 0 xyz
  end
  begin
    id 22
    name LeftUpLeg
    direction -2.30187e-007 -1 6.00931e-010
    length 16.4045
    axis -3.48766 0.00143442 -0.000524262 xyz
    dof rx ry rz
  end
  begin
    id 23
    name LeftLeg
    direction -2.30187e-007 -1 1.6669e-009
    length 17.5097
    axis 3.68178 -0.00654042 -0.000285133 xyz
    dof rx ry rz
  end
  begin
    id 24
    name LeftFoot
    direction 8.31532e-007 -4.54478e-011 1
    length 6.49508
    axis 1.87233e-006 4.66016e-005 -8.6538e-006 xyz
    dof rx ry rz
  end
  begin
    id 25
    name LeftToes
    direction 0.00818058 -0.00485161 0.999955
    length 3.85048
    axis 1.06247e-005 4.65869e-005 -8.65513e-006 xyz
    dof rx ry rz
  end
:hierarchy
  begin
    root RightUpLegDummy SpineDummy LeftUpLegDummy
    RightUpLegDummy RightUpLeg
    RightUpLeg RightLeg
    RightLeg RightFoot
    RightFoot RightToes
    SpineDummy Spine
    Spine Spine1
    Spine1 HEadDummy LeftShoulder1Dummy RightShoulderDummy
    HEadDummy HEad
    LeftShoulder1Dummy LeftShoulder1
    LeftShoulder1 LeftArm
    LeftArm LeftForeArm
    LeftForeArm LeftHand
    RightShoulderDummy RightShoulder
    RightShoulder RightArm
    RightArm RightForeArm
    RightForeArm RightHand
    LeftUpLegDummy LeftUpLeg
    LeftUpLeg LeftLeg
    LeftLeg LeftFoot
    LeftFoot LeftToes
  end

:SAMPLES-PER-SECOND 30
:FULLY-SPECIFIED
:DEGREES
101
root  -67.0581 30.0878 29.3613 19.3523 57.4083 7.62634
RightUpLeg  -36.147 -11.8331 -23.6625
RightLeg  44.6596 10.8474 9.25778
RightFoot  -5.25109 -0.0323417 -0.327766
RightToes  -56.3301 -0.360234 -0.387661
Spine  11.8621 4.87777 4.71217
Spine1  23.0773 12.5365 3.06067
HEad  19.3734 13.5283 -9.48923
LeftShoulder1  0 -2.42657e-020 -4.95415e-022
LeftArm  -16.9956 -0.742422 -88.0603
LeftForeArm  39.1256 -50.818 -12.5124
LeftHand  0.505246 -10.5742 -5.8294
RightShoulder  0 2.42657e-020 1.07489e-018
RightArm  -45.3353 17.6461 60.1474
RightForeArm  35.5455 24.5049 4.59913
RightHand  -0.798419 22.1655 -3.70545
LeftUpLeg  -45.0285 6.06658 2.39075
LeftLeg  53.1123 -6.79017 -7.87064
LeftFoot  -7.87366 0.0860854 1.25084
LeftToes  -28.2261 2.34596e-006 -6.06653e-008
102
root  -66.3585 30.6465 28.6486 17.5382 55.8337 6.12251
RightUpLeg  -31.7907 -5.19669 -25.0116
RightLeg  36.2724 7.50943 4.76103
RightFoot  -1.98845 0.000695619 0.417779
RightToes  -52.2375 -0.322854 -0.373326
Spine  11.2391 3.7552 4.40639
Spine1  22.0004 9.70201 3.27653
HEad  20.3183 15.5197 -10.0344
LeftShoulder1  0 -2.42657e-020 -4.95415e-022
LeftArm  -18.3867 2.1181 -87.425
LeftForeArm  38.383 -50.741 -12.4782
LeftHand  0.434927 -9.59976 -5.54997
RightShoulder  0 2.42657e-020 1.07489e-018
RightArm  -37.5585 12.5978 61.0699
RightForeArm  33.7468 34.4431 6.94133
RightHand  -0.934436 22.1719 -4.39763
LeftUpLeg  -42.3733 6.86283 1.17327
LeftLeg  50.4301 -6.53829 -6.90881
LeftFoot  -7.62279 0.0760058 1.14084
LeftToes  -25.685 2.34596e-006 -6.06653e-008
103
root  -65.7744 31.2256 28.0272 15.8768 54.358 4.54637
RightUpLeg  -28.2608 3.32758 -25.7471
RightLeg  29.5317 -0.770531 -0.381552
RightFoot  -0.822498 0.000618678 0.464136
RightToes  -37.2232 -0.196689 -0.298905
Spine  10.3329 2.46735 3.88696
Spine1  20.2806 6.43326 3.54219
HEad  21.7135 17.947 -10.308
LeftShoulder1  0 -2.42657e-020 -4.95415e-022
LeftArm  -19.3351 5.45587 -86.2175
LeftForeArm  39.0584 -50.6381 -12.4308
LeftHand  0.437504 -9.37387 -5.70668
RightShoulder  0 2.42657e-020 1.07489e-018
RightArm  -30.1255 8.14973 61.9978
RightForeArm  36.9073 43.5103 9.6424
RightHand  -1.67597 21.3508 -8.50603
LeftUpLeg  -39.8108 7.41177 0.384481
LeftLeg  47.1624 -5.96019 -5.63057
LeftFoot  -6.79582 0.0539265 0.908217
LeftToes  -25.6171 2.34596e-006 -6.06653e-008
104
root  -65.3203 31.7418 27.5832 14.2203 52.9069 3.32904
RightUpLeg  -25.9053 10.163 -24.97
RightLeg  27.3145 -6.78865 -2.96535
RightFoot  -1.86323 0.00359252 0.496673
RightToes  -29.8447 -0.142853 -0.250885
Spine  9.63413 1.25508 3.2509
Spine1  18.7982 3.30243 3.66155
HEad  22.8167 20.0728 -9.65573
LeftShoulder1  0 -2.42657e-020 -4.95415e-022
LeftArm  -20.7633 8.23091 -84.7866
LeftForeArm  39.7786 -49.892 -12.0979
LeftHand  0.521147 -10.0822 -6.27699
RightShoulder  0 2.42657e-020 1.07489e-018
RightArm  -26.2602 3.09448 63.7841
RightForeArm  51.295 55.3844 14.8246
RightHand  -2.38944 21.2278 -12.3339
LeftUpLeg  -36.9019 7.58941 0.00396242
LeftLeg  43.7284 -5.41455 -4.5406
LeftFoot  -5.92002 0.0354714 0.685978
LeftToes  -21.3937 2.34596e-006 -6.06653e-008
105
root  -65.0371 32.0886 27.2846 12.7598 52.1438 1.99084
RightUpLeg  -25.1338 11.1165 -21.4686
RightLeg  30.1045 -4.50171 -2.24137
RightFoot  -3.88593 0.00533525 0.534915
RightToes  -25.9127 -0.116812 -0.222579
Spine  9.41202 0.585274 3.04319
Spine1  18.3048 1.86712 3.31644
HEad  23.4422 22.4181 -9.44213
LeftShoulder1  0 -2.42657e-020 -4.95415e-022
LeftArm  -22.047 9.75832 -83.787
LeftForeArm  40.2395 -49.8799 -12.092
LeftHand  0.564411 -10.37 -6.58814
RightShoulder  0 2.42657e-020 1.07489e-018
RightArm  -24.2805 -1.89671 64.3419
RightForeArm  63.3601 67.3801 25.1445
RightHand  -3.01497 20.915 -15.864
LeftUpLeg  -35.0437 7.16044 0.227655
LeftLeg  41.3561 -4.42811 -3.41738
LeftFoot  -5.25603 0.0218347 0.475692
LeftToes  -22.0151 2.34596e-006 -6.06653e-008
106
root  -64.9099 32.3942 27.0497 11.8255 51.2177 1.26265
RightUpLeg  -24.8109 9.7065 -17.2197
RightLeg  34.3774 -2.86057 -1.71035
RightFoot  -5.67374 0.00648884 0.508558
RightToes  -28.4008 -0.133065 -0.240699
Spine  9.31666 0.152098 2.67304
Spine1  18.0654 1.14914 2.40256
HEad  24.0395 24.6263 -8.54529
LeftShoulder1  0 -2.42657e-020 -4.95415e-022
LeftArm  -23.297 11.0346 -82.8751
LeftForeArm  40.5318 -49.9559 -12.1249
LeftHand  0.444919 -9.5675 -5.68674
RightShoulder  0 2.42657e-020 1.07489e-018
RightArm  -22.4076 -4.19426 65.8051
RightForeArm  74.9454 73.5471 36.9094
RightHand  -3.6465 19.8609 -20.2463
LeftUpLeg  -33.3031 7.25278 0.219128
LeftLeg  38.8585 -3.79902 -2.67881
LeftFoot  -4.3225 0.0128327 0.340029
LeftToes  -20.8618 2.34596e-006 -6.06653e-008
107
root  -64.8927 32.6353 26.7907 11.6504 50.8352 1.21434
RightUpLeg  -24.2426 5.94362 -12.9383
RightLeg  38.5071 -3.69535 -2.58633
RightFoot  -7.90248 0.0289105 0.796174
RightToes  -32.6543 -0.16262 -0.269984
Spine  9.17947 -0.224605 2.20948
Spine1  17.71 0.516315 1.43846
HEad  25.4228 25.9192 -7.32862
LeftShoulder1  0 -2.42657e-020 -4.95415e-022
LeftArm  -24.3081 11.4612 -82.0365
LeftForeArm  39.8025 -49.0957 -11.7552
LeftHand  0.401675 -9.36883 -5.27285
RightShoulder  0 2.42657e-020 1.07489e-018
RightArm  -21.342 -6.25702 68.6528
RightForeArm  92.6341 77.0123 50.2974
RightHand  -4.07272 19.5706 -22.9353
LeftUpLeg  -32.2158 7.08079 -0.109799
LeftLeg  36.6478 -3.66625 -2.37956
LeftFoot  -3.01864 0.00661018 0.250863
LeftToes  -18.1308 2.34596e-006 -6.06653e-008
